<?xml version="1.0" standalone="no"?>
<!DOCTYPE svg PUBLIC "-//W3C//DTD SVG 20010904//EN"
 "http://www.w3.org/TR/2001/REC-SVG-20010904/DTD/svg10.dtd">
<svg version="1.0" xmlns="http://www.w3.org/2000/svg"
 width="171.000000pt" height="171.000000pt" viewBox="0 0 171.000000 171.000000"
 preserveAspectRatio="xMidYMid meet">
<metadata>
Created by potrace 1.11, written by Peter Selinger 2001-2013
</metadata>
<g transform="translate(0.000000,171.000000) scale(0.100000,-0.100000)"
fill="#000000" stroke="none">
<path d="M816 1073 c-2 -2 -17 -6 -32 -8 -36 -4 -120 -40 -128 -54 -11 -17
-22 -13 -34 14 -7 16 -17 23 -27 19 -21 -9 -19 -27 6 -42 l21 -13 -20 -22
c-36 -38 -73 -132 -73 -184 -1 -121 39 -205 123 -259 52 -34 56 -39 47 -62
-11 -30 4 -77 28 -86 8 -3 11 -11 7 -17 -4 -7 -3 -9 2 -6 5 3 21 -4 34 -15 14
-11 19 -16 11 -12 -8 4 -12 3 -9 -2 4 -5 37 -8 75 -8 40 1 71 -3 75 -10 5 -7
8 -4 8 8 0 12 5 16 16 12 8 -3 12 -2 9 4 -6 9 7 14 27 11 4 0 5 5 3 12 -3 6 8
21 23 31 25 16 28 24 25 55 -2 19 -9 38 -14 42 -6 3 10 18 34 32 84 50 119
116 133 251 6 67 -14 130 -61 192 l-24 32 21 14 c14 10 19 20 15 31 -8 21 -37
22 -37 2 0 -25 -25 -27 -61 -6 -19 11 -53 24 -76 31 -44 11 -140 20 -147 13z"/>
<path d="M670 396 c0 -2 7 -7 16 -10 8 -3 12 -2 9 4 -6 10 -25 14 -25 6z"/>
<path d="M690 349 c0 -5 5 -7 10 -4 6 3 10 8 10 11 0 2 -4 4 -10 4 -5 0 -10
-5 -10 -11z"/>
<path d="M705 330 c-3 -6 1 -7 9 -4 18 7 21 14 7 14 -6 0 -13 -4 -16 -10z"/>
<path d="M1010 331 c0 -6 4 -13 10 -16 6 -3 7 1 4 9 -7 18 -14 21 -14 7z"/>
<path d="M746 312 c-3 -5 1 -9 9 -9 8 0 12 4 9 9 -3 4 -7 8 -9 8 -2 0 -6 -4
-9 -8z"/>
<path d="M840 301 c0 -6 4 -13 10 -16 6 -3 7 1 4 9 -7 18 -14 21 -14 7z"/>
<path d="M966 288 c3 -5 10 -6 15 -3 13 9 11 12 -6 12 -8 0 -12 -4 -9 -9z"/>
</g>
</svg>
